<?xml version="1.0" encoding="utf-8"?>
<!-- Generator: Adobe Illustrator 21.1.0, SVG Export Plug-In . SVG Version: 6.00 Build 0)  -->
<svg version="1.1" id="Icons" xmlns="http://www.w3.org/2000/svg" xmlns:xlink="http://www.w3.org/1999/xlink" x="0px" y="0px"
	 viewBox="0 0 48 48" style="enable-background:new 0 0 48 48;" xml:space="preserve">
<style type="text/css">
	.st0{fill:#FFE500;}
	.st1{fill:#EBCB00;}
	.st2{fill:#FFF48C;}
	.st3{opacity:0.15;fill:#45413C;}
	.st4{fill:none;stroke:#45413C;stroke-linecap:round;stroke-linejoin:round;stroke-miterlimit:10;}
	.st5{fill:#FFAA54;}
	.st6{fill:#FFB0CA;stroke:#45413C;stroke-linecap:round;stroke-linejoin:round;stroke-miterlimit:10;}
	.st7{fill:#FF87AF;stroke:#45413C;stroke-linecap:round;stroke-linejoin:round;stroke-miterlimit:10;}
	.st8{fill:#00B8F0;}
	.st9{fill:#4ACFFF;}
	.st10{fill:#FFFFFF;stroke:#45413C;stroke-linecap:round;stroke-linejoin:round;stroke-miterlimit:10;}
	.st11{fill:#45413C;stroke:#45413C;stroke-linecap:round;stroke-linejoin:round;stroke-miterlimit:10;}
	.st12{fill:#009FD9;}
	.st13{fill:none;stroke:#45413C;stroke-linecap:round;stroke-miterlimit:10;}
	.st14{fill:#FFFFFF;stroke:#45413C;stroke-linejoin:round;stroke-miterlimit:10;}
	.st15{fill:#FF6242;}
	.st16{fill:#FF866E;}
	.st17{fill:#656769;}
	.st18{fill:#87898C;}
	.st19{fill:#4AEFF7;stroke:#45413C;stroke-linecap:round;stroke-linejoin:round;stroke-miterlimit:10;}
	.st20{fill:none;stroke:#48CF3E;stroke-linecap:round;stroke-linejoin:round;stroke-miterlimit:10;}
	.st21{fill:none;stroke:#FF4064;stroke-linecap:round;stroke-linejoin:round;stroke-miterlimit:10;}
	.st22{fill:none;stroke:#FFB700;stroke-linecap:round;stroke-linejoin:round;stroke-miterlimit:10;}
	.st23{fill:none;stroke:#00AED9;stroke-linecap:round;stroke-linejoin:round;stroke-miterlimit:10;}
	.st24{fill:#FFFACF;}
	.st25{fill:#45413C;}
	.st26{fill:#FF866E;stroke:#45413C;stroke-linecap:round;stroke-linejoin:round;stroke-miterlimit:10;}
	.st27{fill:#DABFF5;stroke:#45413C;stroke-linejoin:round;stroke-miterlimit:10;}
	.st28{fill:#EDDBFF;}
	.st29{fill:none;stroke:#45413C;stroke-linejoin:round;stroke-miterlimit:10;}
	.st30{fill:#6DD627;}
	.st31{fill:#46B000;}
	.st32{fill:#C8FFA1;}
	.st33{fill:url(#XMLID_91_);}
	.st34{fill:url(#XMLID_92_);}
	.st35{fill:#F0F0F0;stroke:#45413C;stroke-linecap:round;stroke-linejoin:round;stroke-miterlimit:10;}
	.st36{fill:#EBCB00;stroke:#45413C;stroke-linecap:round;stroke-linejoin:round;stroke-miterlimit:10;}
	.st37{fill:#BDBEC0;stroke:#45413C;stroke-linecap:round;stroke-linejoin:round;stroke-miterlimit:10;}
	.st38{fill:#F0F0F0;}
	.st39{fill:#FFFFFF;}
	.st40{fill:url(#XMLID_93_);}
	.st41{fill:url(#XMLID_94_);}
	.st42{fill:#FFE500;stroke:#45413C;stroke-linecap:round;stroke-linejoin:round;stroke-miterlimit:10;}
	.st43{fill:#E04122;}
	.st44{fill:#8CFFE4;stroke:#45413C;stroke-linecap:round;stroke-linejoin:round;stroke-miterlimit:10;}
	.st45{fill:#E5FFF9;}
	.st46{fill:#E0E0E0;}
	.st47{fill:#9CEB60;}
	.st48{fill:#6DD627;stroke:#45413C;stroke-linecap:round;stroke-linejoin:round;stroke-miterlimit:10;}
	.st49{fill:#E8F4FA;}
	.st50{fill:#F0D5A8;}
	.st51{fill:#DEBB7E;}
	.st52{fill:#B89558;}
	.st53{fill:#00B8F0;stroke:#45413C;stroke-linecap:round;stroke-linejoin:round;stroke-miterlimit:10;}
	.st54{fill:#FFFCE5;}
	.st55{fill:#FF87AF;}
	.st56{fill:#4ACFFF;stroke:#45413C;stroke-linecap:round;stroke-linejoin:round;stroke-miterlimit:10;}
	.st57{fill:#E5F8FF;}
	.st58{fill:none;stroke:#45413C;stroke-miterlimit:10;}
	.st59{fill:none;stroke:#FF6242;stroke-linecap:round;stroke-linejoin:round;stroke-miterlimit:10;}
	.st60{fill:#BDBEC0;}
	.st61{fill:#B89558;stroke:#45413C;stroke-linecap:round;stroke-linejoin:round;stroke-miterlimit:10;}
	.st62{fill:#FF6242;stroke:#45413C;stroke-linecap:round;stroke-linejoin:round;stroke-miterlimit:10;}
	.st63{fill:#525252;stroke:#45413C;stroke-linecap:round;stroke-linejoin:round;stroke-miterlimit:10;}
	.st64{fill:#525252;}
	.st65{fill:#00DBA8;}
	.st66{fill:#00AD85;}
	.st67{fill:#BF8DF2;}
	.st68{fill:#DABFF5;}
	.st69{fill:#00F5BC;}
	.st70{fill:#DAEDF7;}
	.st71{fill:#C0DCEB;}
	.st72{fill:#ADC4D9;}
	.st73{fill:#ADC4D9;stroke:#45413C;stroke-linecap:round;stroke-linejoin:round;stroke-miterlimit:10;}
	.st74{fill:#00DFEB;stroke:#45413C;stroke-linecap:round;stroke-linejoin:round;stroke-miterlimit:10;}
	.st75{fill:#627B8C;stroke:#45413C;stroke-linecap:round;stroke-linejoin:round;stroke-miterlimit:10;}
	.st76{fill:#8CA4B8;}
	.st77{fill:#00DBA8;stroke:#45413C;stroke-linecap:round;stroke-linejoin:round;stroke-miterlimit:10;}
	.st78{fill:#FF8A14;}
	.st79{fill:#BF8256;}
	.st80{fill:#DEA47A;}
	.st81{fill:#915E3A;}
	.st82{fill:#FFA694;}
	.st83{fill:#E5FEFF;stroke:#45413C;stroke-linecap:round;stroke-linejoin:round;stroke-miterlimit:10;}
	.st84{fill:#803EC2;stroke:#45413C;stroke-linecap:round;stroke-linejoin:round;stroke-miterlimit:10;}
	.st85{fill:#9F5AE5;}
	.st86{fill:#803EC2;}
</style>
<g id="XMLID_727_">
	<path id="XMLID_1310_" class="st72" d="M38.6,21.7c0-2.7-2.2-4.9-4.9-4.9H14.3c-2.7,0-4.9,2.2-4.9,4.9v17.9c0,2.7,2.2,4.9,4.9,4.9
		h19.5c2.7,0,4.9-2.2,4.9-4.9V21.7z"/>
	<path id="XMLID_1309_" class="st71" d="M33.7,16.9H14.3c-2.7,0-4.9,2.2-4.9,4.9v2.4c0-2.7,2.2-4.9,4.9-4.9h19.5
		c2.7,0,4.9,2.2,4.9,4.9v-2.4C38.6,19,36.4,16.9,33.7,16.9z"/>
	<path id="XMLID_1308_" class="st76" d="M38.6,32.7H27.2c-1.8,0-3.2-1.5-3.2-3.2V16.9h9.7c2.7,0,4.9,2.2,4.9,4.9V32.7z"/>
	<path id="XMLID_1307_" class="st72" d="M38.4,20.3c-0.6-2-2.5-3.4-4.7-3.4H24v2.4h9.7c2.7,0,4.9,2.2,4.9,4.9v-2.4
		C38.6,21.2,38.5,20.7,38.4,20.3z"/>
	<path id="XMLID_1306_" class="st4" d="M38.6,21.7c0-2.7-2.2-4.9-4.9-4.9H14.3c-2.7,0-4.9,2.2-4.9,4.9v17.9c0,2.7,2.2,4.9,4.9,4.9
		h19.5c2.7,0,4.9-2.2,4.9-4.9V21.7z"/>
	<ellipse id="XMLID_1305_" class="st3" cx="24" cy="45.5" rx="15.5" ry="1.5"/>
	<circle id="XMLID_1301_" class="st10" cx="16.3" cy="25" r="4.1"/>
	<circle id="XMLID_1300_" class="st77" cx="16.3" cy="25" r="2"/>
	<circle id="XMLID_1299_" class="st10" cx="31.7" cy="25" r="4.1"/>
	<circle id="XMLID_1298_" class="st53" cx="31.7" cy="25" r="1.6"/>
	<g>
		<path class="st25" d="M36.6,29.8c-0.3,0-0.5,0.2-0.5,0.5c0,0.3,0.2,0.5,0.5,0.5s0.5-0.2,0.5-0.5C37.1,30,36.9,29.8,36.6,29.8
			L36.6,29.8z"/>
	</g>
	<g>
		<path class="st25" d="M26,29.8c-0.3,0-0.5,0.2-0.5,0.5c0,0.3,0.2,0.5,0.5,0.5s0.5-0.2,0.5-0.5C26.5,30,26.3,29.8,26,29.8L26,29.8z
			"/>
	</g>
	<g>
		<path class="st25" d="M26,18.4c-0.3,0-0.5,0.2-0.5,0.5c0,0.3,0.2,0.5,0.5,0.5s0.5-0.2,0.5-0.5C26.5,18.6,26.3,18.4,26,18.4
			L26,18.4z"/>
	</g>
	<polyline id="XMLID_1292_" class="st4" points="24,14 24,11.6 28.5,10.3 23.2,5.5 30.9,7.5 32.2,4.9 	"/>
	<circle id="XMLID_1291_" class="st62" cx="32.9" cy="3" r="2"/>
	<path id="XMLID_1290_" class="st4" d="M38.6,32.7H27.2c-1.8,0-3.2-1.5-3.2-3.2V16.9h9.7c2.7,0,4.9,2.2,4.9,4.9V32.7z"/>
	<line id="XMLID_1287_" class="st4" x1="31.7" y1="22.1" x2="31.7" y2="23.4"/>
	<line id="XMLID_1273_" class="st4" x1="34.6" y1="25" x2="33.3" y2="25"/>
	<line id="XMLID_1272_" class="st4" x1="31.7" y1="27.8" x2="31.7" y2="26.6"/>
	<line id="XMLID_1271_" class="st4" x1="28.9" y1="25" x2="30.1" y2="25"/>
	<path id="XMLID_1270_" class="st73" d="M29.7,16.9H18.3c0-1.6,1.3-2.8,2.8-2.8h5.7C28.4,14,29.7,15.3,29.7,16.9z"/>
	<path id="XMLID_1269_" class="st42" d="M39.4,37.2h-0.8v-13h0.8c1.3,0,2.4,1.1,2.4,2.4v8.1C41.9,36.1,40.8,37.2,39.4,37.2z"/>
	<path id="XMLID_1268_" class="st42" d="M8.6,37.2h0.8v-13H8.6c-1.3,0-2.4,1.1-2.4,2.4v8.1C6.1,36.1,7.2,37.2,8.6,37.2z"/>
	<g>
		<path class="st71" d="M34,44c0,0.8-0.7,1.5-1.5,1.5h-17c-0.8,0-1.5-0.7-1.5-1.5v-5.5c0-0.8,0.7-1.5,1.5-1.5h17
			c0.8,0,1.5,0.7,1.5,1.5V44z"/>
		<path class="st70" d="M32.5,37h-17c-0.8,0-1.5,0.7-1.5,1.5v2c0-0.8,0.7-1.5,1.5-1.5h17c0.8,0,1.5,0.7,1.5,1.5v-2
			C34,37.7,33.3,37,32.5,37z"/>
		<path class="st4" d="M34,44c0,0.8-0.7,1.5-1.5,1.5h-17c-0.8,0-1.5-0.7-1.5-1.5v-5.5c0-0.8,0.7-1.5,1.5-1.5h17
			c0.8,0,1.5,0.7,1.5,1.5V44z"/>
		<g>
			<path class="st25" d="M16,38.5c-0.3,0-0.5,0.2-0.5,0.5c0,0.3,0.2,0.5,0.5,0.5c0.3,0,0.5-0.2,0.5-0.5C16.5,38.7,16.3,38.5,16,38.5
				L16,38.5z"/>
		</g>
		<g>
			<path class="st25" d="M32,38.5c-0.3,0-0.5,0.2-0.5,0.5c0,0.3,0.2,0.5,0.5,0.5c0.3,0,0.5-0.2,0.5-0.5C32.5,38.7,32.3,38.5,32,38.5
				L32,38.5z"/>
		</g>
	</g>
</g>
</svg>
